# Alias OBJ Model File
# Exported from SketchUp, (c) 2000-2012 Trimble Navigation Limited
# File units = meters

mtllib Boss_Face.mtl

g Mesh1 Group1 Model

usemtl M_640x480_light_yellow_solid_color_background
v 2.56 -0.308937 0.262732
vt 8.70079 3.06537
vn 1 0 0
v 2.56 0.308937 0.262732
vt 9.92126 3.06537
v 2.56 0.308937 1.23596
vt 9.92126 3.7848
v 2.56 -0.308937 1.23596
vt 8.70079 3.7848
f 1/1/1 2/2/1 3/3/1 4/4/1 

v 2.27788 0.308937 -0.538009
vt 9.92126 5.56584
vn 0.580835 0 -0.814022
vt 9.92126 6.26788
vn 0.654807 0 -0.755796
vt 8.70079 6.26788
v 2.27788 -0.308937 -0.538009
vt 8.70079 5.56584
f 5/5/2 2/6/3 1/7/3 6/8/2 

v 1.93415 0.308937 1.23596
vt -6.01302 3.7848
vn -1.73839e-017 1 -1.56863e-015
vt -6.85039 3.7848
vt -6.85039 3.06537
vt -6.47292 2.47345
v 1.92019 0.308937 -1.23285
vt -5.99435 1.95981
v 1.49881 0.308937 -1.79875
vt -5.43056 1.54149
v 1.02771 0.308937 -2.21693
vt -4.80025 1.23236
v 0.522524 0.308937 -2.47351
vt -4.12432 1.04269
v 3.60956e-016 0.308937 -2.56
vt -3.4252 0.978755
v -0.522524 0.308937 -2.47351
vt -2.72608 1.04269
v -1.02771 0.308937 -2.21693
vt -2.05015 1.23236
v -1.49881 0.308937 -1.79875
vt -1.41983 1.54149
v -1.92019 0.308937 -1.23285
vt -0.85604 1.95981
v -2.27788 0.308937 -0.538009
vt -0.37747 2.47345
v -2.56 0.308937 0.262732
vt -1.16824e-016 3.06537
v -2.56 0.308937 1.23596
vt -1.16824e-016 3.7848
v -1.80287 0.308937 1.23596
vt -1.01302 3.7848
v -1.53824 0.308937 0.84257
vt -1.36708 3.494
v -1.24858 0.308937 0.511976
vt -1.75463 3.24961
v -0.93841 0.308937 0.249338
vt -2.16963 3.05547
v -0.612563 0.308937 0.0587542
vt -2.60561 2.91459
v -0.276129 0.308937 -0.056799
vt -3.05575 2.82917
v 0.0656401 0.308937 -0.0955182
vt -3.51302 2.80054
v 0.407409 0.308937 -0.056799
vt -3.9703 2.82917
v 0.743843 0.308937 0.0587542
vt -4.42043 2.91459
v 1.06969 0.308937 0.249338
vt -4.85641 3.05547
v 1.37986 0.308937 0.511976
vt -5.27141 3.24961
v 1.66952 0.308937 0.84257
vt -5.65897 3.494
f 7/9/4 3/10/4 2/11/4 5/12/4 8/13/4 9/14/4 10/15/4 11/16/4 12/17/4 13/18/4 14/19/4 15/20/4 16/21/4 17/22/4 18/23/4 19/24/4 20/25/4 21/26/4 22/27/4 23/28/4 24/29/4 25/30/4 26/31/4 27/32/4 28/33/4 29/34/4 30/35/4 31/36/4 

v 1.93415 -0.308937 1.23596
vt 6.01302 8.70079
vn -2.81287e-015 -1.30725e-015 1
vt 6.85039 8.70079
vt 6.85039 9.92126
vt 6.01302 9.92126
f 32/37/5 4/38/5 3/39/5 7/40/5 

v -0.522524 -0.308937 -2.47351
vt 2.72608 1.04269
vn 2.06965e-017 -1 2.47361e-015
v 3.60956e-016 -0.308937 -2.56
vt 3.4252 0.978755
v 0.522524 -0.308937 -2.47351
vt 4.12432 1.04269
v 1.02771 -0.308937 -2.21693
vt 4.80025 1.23236
v 1.49881 -0.308937 -1.79875
vt 5.43056 1.54149
v 1.92019 -0.308937 -1.23285
vt 5.99435 1.95981
vt 6.47292 2.47345
vt 6.85039 3.06537
vt 6.85039 3.7848
vt 6.01302 3.7848
v 1.66952 -0.308937 0.84257
vt 5.65897 3.494
v 1.37986 -0.308937 0.511976
vt 5.27141 3.24961
v 1.06969 -0.308937 0.249338
vt 4.85641 3.05547
v 0.743843 -0.308937 0.0587542
vt 4.42043 2.91459
v 0.407409 -0.308937 -0.056799
vt 3.9703 2.82917
v 0.0656401 -0.308937 -0.0955182
vt 3.51302 2.80054
v 3.60956e-016 -0.308937 -0.0880818
vt 3.4252 2.80604
v -0.276129 -0.308937 -0.056799
vt 3.05575 2.82917
v -0.612563 -0.308937 0.0587542
vt 2.60561 2.91459
v -0.93841 -0.308937 0.249338
vt 2.16963 3.05547
v -1.24858 -0.308937 0.511976
vt 1.75463 3.24961
v -1.53824 -0.308937 0.84257
vt 1.36708 3.494
v -1.80287 -0.308937 1.23596
vt 1.01302 3.7848
v -2.56 -0.308937 1.23596
vt 1.21975e-016 3.7848
v -2.56 -0.308937 0.262732
vt 1.21975e-016 3.06537
v -2.27788 -0.308937 -0.538009
vt 0.37747 2.47345
v -1.92019 -0.308937 -1.23285
vt 0.85604 1.95981
v -1.49881 -0.308937 -1.79875
vt 1.41983 1.54149
v -1.02771 -0.308937 -2.21693
vt 2.05015 1.23236
f 33/41/6 34/42/6 35/43/6 36/44/6 37/45/6 38/46/6 6/47/6 1/48/6 4/49/6 32/50/6 39/51/6 40/52/6 41/53/6 42/54/6 43/55/6 44/56/6 45/57/6 46/58/6 47/59/6 48/60/6 49/61/6 50/62/6 51/63/6 52/64/6 53/65/6 54/66/6 55/67/6 56/68/6 57/69/6 

vt -9.92126 -2.6198
vn -0.101374 0 -0.994848
vt -9.92126 -3.32183
vn 0 0 -1
vt -8.70079 -3.32183
vt -8.70079 -2.6198
f 13/70/7 12/71/8 34/72/8 33/73/7 

vt 9.92126 3.5001
vt 9.92126 4.20213
vn 0.101374 0 -0.994848
vt 8.70079 4.20213
vt 8.70079 3.5001
f 12/74/8 11/75/9 35/76/9 34/77/8 

vt 9.92126 4.25265
vt 9.92126 4.95468
vn 0.20643 0 -0.978461
vt 8.70079 4.95468
vt 8.70079 4.25265
f 11/78/9 10/79/10 36/80/10 35/81/9 

vt 9.92126 4.85248
vt 9.92126 5.55452
vn 0.318993 0 -0.947757
vt 8.70079 5.55452
vt 8.70079 4.85248
f 10/82/10 9/83/11 37/84/11 36/85/10 

vt 9.92126 5.27971
vt 9.92126 5.98175
vn 0.442888 0 -0.896577
vt 8.70079 5.98175
vt 8.70079 5.27971
f 9/86/11 8/87/12 38/88/12 37/89/11 

vt 9.92126 5.52015
vt 9.92126 6.22219
vt 8.70079 6.22219
vt 8.70079 5.52015
f 8/90/12 5/91/2 6/92/2 38/93/12 

vt -9.92126 -1.64095
vn -0.20643 0 -0.978461
vt -9.92126 -2.34299
vt -8.70079 -2.34299
vt -8.70079 -1.64095
f 14/94/13 13/95/7 33/96/7 57/97/13 

vt -9.92126 -0.596025
vn -0.318993 0 -0.947757
vt -9.92126 -1.29806
vt -8.70079 -1.29806
vt -8.70079 -0.596025
f 15/98/14 14/99/13 57/100/13 56/101/14 

vt -9.92126 0.480314
vn -0.442888 0 -0.896577
vt -9.92126 -0.221722
vt -8.70079 -0.221722
vt -8.70079 0.480314
f 16/102/15 15/103/14 56/104/14 55/105/15 

vt -9.92126 1.55237
vn -0.580835 0 -0.814022
vt -9.92126 0.850329
vt -8.70079 0.850329
vt -8.70079 1.55237
f 17/106/16 16/107/15 55/108/15 54/109/16 

vt -9.92126 2.58457
vn -0.654807 0 -0.755796
vt -9.92126 1.88253
vt -8.70079 1.88253
vt -8.70079 2.58457
f 18/110/17 17/111/16 54/112/16 53/113/17 

vt -8.70079 3.06537
vn -1 0 0
vt -8.70079 3.7848
vt -9.92126 3.7848
vt -9.92126 3.06537
f 53/114/18 52/115/18 19/116/18 18/117/18 

vt 1.01302 8.70079
vn 2.90643e-015 -1.19831e-015 1
vt 1.01302 9.92126
vt -1.99102e-014 9.92126
vt -1.99102e-014 8.70079
f 51/118/19 20/119/19 19/120/19 52/121/19 

vt 9.92126 1.16121
vn 0.370354 -2.2779e-015 0.928891
vt 9.92126 1.61938
vn 0.413228 -2.18166e-015 0.910627
vt 8.70079 1.61938
vt 8.70079 1.16121
f 21/122/20 20/123/21 51/124/21 50/125/20 

vt 9.92126 0.249098
vn 0.289007 -2.39682e-015 0.957327
vt 9.92126 0.707268
vt 8.70079 0.707268
vt 8.70079 0.249098
f 22/126/22 21/127/20 50/128/20 49/129/22 

vt 9.92126 -0.670479
vn 0.212547 -2.33757e-015 0.977151
vt 9.92126 -0.212308
vt 8.70079 -0.212308
vt 8.70079 -0.670479
f 23/130/23 22/131/22 49/132/22 48/133/23 

vt 9.92126 -1.58317
vn 0.139716 -2.21052e-015 0.990192
vt 9.92126 -1.12499
vt 8.70079 -1.12499
vt 8.70079 -1.58317
f 24/134/24 23/135/23 48/136/23 47/137/24 

vt 9.92126 -2.47471
vn 0.0692688 -2.16418e-015 0.997598
vt 9.92126 -2.01654
vt 8.70079 -2.01654
vt 8.70079 -2.47471
f 25/138/25 24/139/24 47/140/24 46/141/25 

vt 9.92126 -3.33121
vn -4.57102e-016 -2.16878e-015 1
vt 9.92126 -2.87304
vt 8.70079 -2.87304
vt 8.70079 -3.24321
vn 0.0345611 -2.15753e-015 0.999403
vt 8.70079 -3.33121
f 26/142/26 25/143/25 46/144/25 45/145/27 44/146/26 

vt -9.92126 4.13928
vn -0.0692688 -2.17364e-015 0.997598
vt -9.92126 3.68111
vt -8.70079 3.68111
vt -8.70079 4.13928
f 27/147/28 26/148/26 44/149/26 43/150/28 

vt -9.92126 4.88631
vn -0.139716 -2.20996e-015 0.990192
vt -9.92126 4.42814
vt -8.70079 4.42814
vt -8.70079 4.88631
f 28/151/29 27/152/28 43/153/28 42/154/29 

vt -9.92126 5.56065
vn -0.212547 -2.28653e-015 0.977151
vt -9.92126 5.10248
vt -8.70079 5.10248
vt -8.70079 5.56065
f 29/155/30 28/156/29 42/157/29 41/158/30 

vt -9.92126 6.15175
vn -0.289007 -2.29428e-015 0.957327
vt -9.92126 5.69358
vt -8.70079 5.69358
vt -8.70079 6.15175
f 30/159/31 29/160/30 41/161/30 40/162/31 

vt -9.92126 6.65041
vn -0.370354 -2.27179e-015 0.928891
vt -9.92126 6.19224
vt -8.70079 6.19224
vt -8.70079 6.65041
f 31/163/32 30/164/31 40/165/31 39/166/32 

vt -9.92126 7.04883
vn -0.413228 -2.27586e-015 0.910627
vt -9.92126 6.59066
vt -8.70079 6.59066
vt -8.70079 7.04883
f 7/167/33 31/168/32 39/169/32 32/170/33 

