# Alias OBJ Model File
# Exported from SketchUp, (c) 2000-2012 Trimble Navigation Limited
# File units = meters

mtllib ControlExperienceScreen.mtl

g Mesh1 Group1 Model

usemtl M_640x480_beige_solid_color_background
v -3.39153e-018 0.12 2.1207
vt 1.03173e-016 8.34921
vn 1.6296e-016 1 2.56568e-016
v 3.1556 0.12 2.1207
vt -12.4236 8.34921
v 3.1556 0.12 9.02389e-017
vt -12.4236 2.13856e-016
v 0 0.12 9.02389e-017
vt 8.98203e-017 2.13856e-016
f 1/1/1 2/2/1 3/3/1 4/4/1 

v -3.39153e-018 -0.02 2.1207
vt 2.70782e-015 -2.13163e-015
vn -3.25919e-016 2.46089e-031 1
v 3.1556 -0.02 2.1207
vt 12.4236 -3.55271e-015
vt 12.4236 0.551181
vt 2.70782e-015 0.551181
f 5/5/2 6/6/2 2/7/2 1/8/2 

vt -3.55271e-015 8.34921
vn 1 0 0
v 3.1556 -0.02 0
vt -1.42109e-015 0
vt 0.551181 3.55271e-016
vt 0.551181 8.34921
f 6/9/3 7/10/3 3/11/3 2/12/3 

vt -12.4236 -1.42109e-015
vn 1.65638e-018 6.76532e-016 -1
v 0 -0.02 0
vt 0 0
v 0 0 0
vt 0 0.0787402
v 0 0.01 0
vt 0 0.11811
vt -5.88465e-034 0.551181
vt -12.4236 0.551181
f 7/13/4 8/14/4 9/15/4 10/16/4 4/17/4 3/18/4 

vn -1 0 0
vt 2.13163e-015 8.34921
vt -0.551181 8.34921
vt -0.551181 3.55271e-016
vt -0.11811 0
vt -0.0787402 0
f 8/14/5 5/19/5 1/20/5 4/21/5 10/22/5 9/23/5 

g Mesh2 Group1 Model

usemtl best_exp_scr
v 0 -0.02 0
vn 0 -0.0254 0
v 3.1556 -0.02 0
vt 1 0
v 3.1556 -0.02 2.1207
vt 1 1
v 0 -0.02 2.1207
vt 0 1
f 11/14/6 12/24/6 13/25/6 14/26/6 

