# Alias OBJ Model File
# Exported from SketchUp, (c) 2000-2012 Trimble Navigation Limited
# File units = meters

mtllib Credit_2.mtl

g Mesh1 Model

usemtl M_640x480_zinnwaldite_brown_solid_color_background1
v -2.015 0.15 1.24681
vt 7.93308 4.90872
vn 0 1 0
v 1.985 0.15 1.24681
vt -7.81495 4.90872
v 1.985 0.15 -1.00319
vt -7.81495 -3.94955
v -2.015 0.15 -1.00319
vt 7.93308 -3.94955
f 1/1/1 2/2/1 3/3/1 4/4/1 

vt 7.81495 0.590551
vn 0 0 1
vt -7.93308 0.590551
v -2.015 -0.16 1.24681
vt -7.93308 -0.629921
v 1.985 -0.16 1.24681
vt 7.81495 -0.629921
f 2/5/2 1/6/2 5/7/2 6/8/2 

vt -0.590551 4.90872
vn -1 0 0
vt -0.590551 -3.94955
v -2.015 -0.16 -1.00319
vt 0.629921 -3.94955
vt 0.629921 4.90872
f 1/9/3 4/10/3 7/11/3 5/12/3 

vt 7.93308 0.590551
vn 9.02389e-017 1.16437e-015 -1
vt -7.81495 0.590551
v 1.985 -0.16 -1.00319
vt -7.81495 -0.629921
vt 7.93308 -0.629921
f 4/13/4 3/14/4 8/15/4 7/16/4 

vt 0.590551 -3.94955
vn 1 0 0
vt 0.590551 4.90872
vt -0.629921 4.90872
vt -0.629921 -3.94955
f 3/17/5 2/18/5 6/19/5 8/20/5 

g Mesh2 Model

usemtl Background
v -2.015 -0.16 -1.00319
vt 0 0
vn 0 -0.0254 0
v 1.985 -0.16 -1.00319
vt 1 0
v 1.985 -0.16 1.24681
vt 1 1
v -2.015 -0.16 1.24681
vt 0 1
f 9/21/6 10/22/6 11/23/6 12/24/6 

