# Alias OBJ Model File
# Exported from SketchUp, (c) 2000-2012 Trimble Navigation Limited
# File units = meters

mtllib Floor.mtl

g Mesh1 Model

usemtl M_640x480_boysenberry_solid_color_background
v -2.56 2.56 2.56
vt -10.0787 10.0787
vn -1 -7.04992e-017 0
v -2.56 -2.56 -2.56
vt 10.0787 -10.0787
v -2.56 -2.56 2.56
vt 10.0787 10.0787
f 1/1/1 2/2/1 3/3/1

v -2.56 2.56 -2.56
vt -10.0787 -10.0787
f 2/2/1 1/1/1 4/4/1

vn -8.32667e-017 1 0
v 2.56 2.56 -2.56
f 1/3/2 5/4/2 4/2/2

v 2.56 2.56 2.56
f 5/4/2 1/3/2 6/1/2

vn 0 0 1
f 3/4/3 6/3/3 1/1/3

v 2.56 -2.56 2.56
f 6/3/3 3/4/3 7/2/3

vn 8.32667e-017 -1 0
f 2/4/4 7/3/4 3/1/4

v 2.56 -2.56 -2.56
f 7/3/4 2/4/4 8/2/4

vn 0 0 -1
f 2/2/5 5/1/5 8/4/5

f 5/1/5 2/2/5 4/3/5

vn 1 0 0
f 5/2/6 7/1/6 8/4/6

f 7/1/6 5/2/6 6/3/6

