# Alias OBJ Model File
# Exported from SketchUp, (c) 2000-2012 Trimble Navigation Limited
# File units = meters

mtllib Homing_Missile_Launcher.mtl

g Mesh1 Group1 Model

usemtl M_640x480_flattery_solid_color_background1
v 2.56 2.56 -1.27583
vt 2.95914 0
vn 5.5773e-017 0.556157 -0.831077
v 2.56 0.00416436 -2.56
vt 6.89615 7.10543e-016
v -2.56 0.00416436 -2.56
vt 6.89615 11.1024
v -2.56 2.56 -1.27583
vt 2.95914 11.1024
f 1/1/1 2/2/1 3/3/1 4/4/1 

v 2.56 2.55722 -0.0152535
vt -3.96046 0.00370751
vn 1 4.59546e-016 8.86756e-016
v 2.56 2.21123 -0.0145031
vt -3.95931 0.464761
v 2.56 2.2135 -1.06284
vt -5.57153 0.461731
v 2.56 0.00349213 -2.17325
vt -7.27922 3.40674
v 2.56 -2.21165 -1.06988
vt -5.58236 6.35859
v 2.56 -2.21396 -0.00490511
vt -3.94454 6.36167
v 2.56 -2.55722 -0.0041606
vt -3.9434 6.81909
v 2.56 -2.55722 -1.28417
vt -5.91191 6.81909
vt -7.874 3.40584
vt -5.89909 -1.20643e-030
v 2.56 2.55724 -0.00416662
vt -3.94341 0.00367546
f 5/5/2 6/6/2 7/7/2 8/8/2 9/9/2 10/10/2 11/11/2 12/12/2 2/13/2 1/14/2 13/15/2 

v 2.56 2.55722 0.00692028
vt -3.92636 0.00370751
vn 1 -9.56453e-016 -1.01599e-013
v 2.56 2.21123 0.00617067
vt -3.92751 0.464761
v 2.56 2.21121 -0.00416662
vt -3.94341 0.464791
f 14/16/3 15/17/3 16/18/3 6/6/3 5/5/3 13/15/3 

vt -0.0164277 10.0569
vn 1 2.29918e-016 4.16979e-016
v 2.56 -2.21396 -0.0034169
vt -0.0193556 8.70621
v 2.56 -2.21165 1.06155
vt -4.21213 8.69712
v 2.56 0.00349213 2.16492
vt -8.5561 -0.0192032
v 2.56 2.2135 1.05451
vt -4.18441 -8.71532
vt -0.057102 -8.70638
vt -0.0600532 -10.0678
vt -0.016404 -10.0679
v 2.56 2.56 1.2675
vt -5.02297 -10.0787
v 2.56 0.00416436 2.55167
vt -10.0787 -0.0218483
v 2.56 -2.55722 1.27583
vt -5.05577 10.0569
f 11/19/4 17/20/4 18/21/4 19/22/4 20/23/4 15/24/4 14/25/4 13/26/4 21/27/4 22/28/4 23/29/4 

vn 1 1.11022e-014 -7.33379e-015
v 2.56 -2.21397 -0.00416662
vt -3.94341 6.36167
vt -3.94226 6.36167
f 11/11/5 10/10/5 24/30/5 17/31/5 

v -2.56 -2.21165 -1.06988
vt -4.16045 10.0787
vn 4.54208e-017 0.999999 0.00162847
v -2.56 -2.21397 -0.00416662
vt 0.035277 10.0787
vt 0.035277 -10.0787
vt 0.0323696 -10.0787
vt -4.16045 -10.0787
f 25/32/6 26/33/6 24/34/6 10/35/6 9/36/6 

v -2.56 -2.56 -0.00416662
vt 0.016404 10.0678
vn -1 3.54771e-017 6.1149e-017
vt 0.016404 8.70622
vt -4.17932 8.69712
f 27/37/7 26/38/7 25/39/7

v -2.56 -2.21165 1.06155
vt 4.21213 8.69712
f 27/37/7 28/40/7 26/38/7

v -2.56 -2.55722 1.27583
vt 5.05577 10.0569
f 29/41/7 28/40/7 27/37/7

v -2.56 0.00349213 2.16492
vt 8.5561 -0.0192032
f 29/41/7 30/42/7 28/40/7

v -2.56 0.00416436 2.55167
vt 10.0787 -0.0218483
f 30/42/7 29/41/7 31/43/7

vt 6.74589 -10.0787
vn -4.79992e-017 -0.552824 0.833298
vt -4.51515 -10.0787
vt -4.51515 10.0787
vt 6.74589 10.0787
v -1.95395 -2.55722 1.27583
vt 6.74589 7.69271
v -0.831422 -2.55722 1.27583
vt 6.74589 3.27332
f 23/44/8 22/45/8 31/46/8 29/47/8 32/48/8 33/49/8 

vt 4.50739 -10.0787
vn -1.63113e-017 0.556157 0.831077
vt -6.7488 -10.0787
v -2.56 2.56 1.2675
vt -6.7488 10.0787
vt 4.50739 10.0787
f 22/50/9 21/51/9 34/52/9 31/53/9 

v -2.56 2.55722 -0.0152535
vt -0.0054206 10.0787
vn 3.55498e-017 0.999999 -0.00162847
v -2.56 2.55724 -0.00416662
vt 0.0382287 10.0787
vt 5.0448 10.0787
vt 5.0448 -10.0787
vt 0.0382287 -10.0787
vt -0.0054206 -10.0787
f 35/54/10 36/55/10 34/56/10 21/57/10 13/58/10 5/59/10 

v -2.56 2.2135 1.05451
vt 4.18441 -8.71532
vt 5.02297 -10.0787
vt 0.016404 -10.0679
f 37/60/7 34/61/7 36/62/7

f 30/42/7 34/61/7 37/60/7

f 34/61/7 30/42/7 31/43/7

vt -3.77831 10.0787
vn 4.3291e-017 -0.00216893 -0.999998
vt 5.95484 10.0787
vn -1.33162e-017 -0.895106 -0.445854
vt 5.95484 -10.0787
vt -3.77831 -10.0787
f 30/63/11 37/64/12 20/65/12 19/66/11 

vt -4.13768 10.0787
v -2.56 2.21121 -0.00416662
vt 0.0303389 10.0787
vn -3.70513e-017 -0.999999 0.00162847
vt 0.0303389 -10.0787
vt -0.0103592 -10.0787
vt -4.13768 -10.0787
f 37/67/12 38/68/13 16/69/13 15/70/13 20/71/12 

vt 0.016404 -8.70629
f 37/60/7 36/62/7 38/72/7

v -2.56 2.2135 -1.06284
vt -4.1516 -8.71532
f 38/72/7 36/62/7 39/73/7

vt -4.99016 -10.0787
f 39/73/7 36/62/7 4/74/7

vt 3.94339 11.1024
vn 3.5399e-017 0.999999 0.00162847
v -2.56 2.55722 0.00692028
vt 3.92634 11.1024
vt 3.92634 4.9738e-015
vt 3.94339 6.39488e-015
vt 5.89908 1.33176e-022
vt 5.89908 11.1024
f 36/75/14 40/76/14 14/77/14 13/78/14 1/79/14 4/80/14 

v -2.56 0.00349213 -2.17325
vt -8.52329 -0.0192032
f 39/73/7 4/74/7 41/81/7

vt -10.0459 -0.0218483
f 41/81/7 4/74/7 3/82/7

v -2.56 -2.55722 -1.28417
vt -5.02297 10.0569
f 42/83/7 41/81/7 3/82/7

f 42/83/7 25/39/7 41/81/7

f 27/37/7 25/39/7 42/83/7

v -1.67398 -2.55791 -0.96942
vt -5.41504 9.18109
vn -1.08005e-016 -0.999999 -0.00162847
v -0.81539 -2.56 -0.00416662
vt -3.93058 7.3193
vt -3.93058 11.1024
vt -5.89908 11.1024
v -1.95395 -2.55722 -1.28417
vt -5.89908 9.78818
f 43/84/15 44/85/15 27/86/15 42/87/15 45/88/15 

usemtl M_640x480_eggshell_solid_color_background
vn -4.87285e-017 -0.999999 -0.00162847
v -1.61703 -2.55803 -0.913809
vt -5.32951 9.0576
v -1.55285 -2.55813 -0.86673
vt -5.25711 8.91842
v -1.4827 -2.55821 -0.829112
vt -5.19926 8.76631
v -1.40797 -2.55827 -0.801699
vt -5.1571 8.60426
v -1.33013 -2.55831 -0.785032
vt -5.13147 8.43548
v -1.25073 -2.55832 -0.779439
vt -5.12287 8.2633
v -1.17133 -2.55831 -0.785032
vt -5.13147 8.09113
v -1.09349 -2.55827 -0.801699
vt -5.1571 7.92235
v -1.01876 -2.55821 -0.829112
vt -5.19926 7.7603
v -0.948615 -2.55813 -0.86673
vt -5.25711 7.60819
v -0.884431 -2.55803 -0.913809
vt -5.32951 7.46901
v -0.82748 -2.55791 -0.96942
vt -5.41504 7.34551
f 44/85/16 43/84/16 46/89/16 47/90/16 48/91/16 49/92/16 50/93/16 51/94/16 52/95/16 53/96/16 54/97/16 55/98/16 56/99/16 57/100/16 

usemtl M_640x480_onyx_solid_color_background1
vn -6.6089e-017 -0.999999 -0.00162847
v -1.61445 -2.5578 -1.01958
vt -5.49218 9.05201
v -1.54903 -2.55771 -1.06178
vt -5.55708 8.91015
v -1.47879 -2.55763 -1.09533
vt -5.60867 8.75783
v -1.40485 -2.55758 -1.11969
vt -5.64614 8.5975
v -1.32842 -2.55755 -1.13447
vt -5.66886 8.43177
v -1.25073 -2.55754 -1.13942
vt -5.67648 8.2633
v -1.17304 -2.55755 -1.13447
vt -5.66886 8.09484
v -1.09661 -2.55758 -1.11969
vt -5.64614 7.9291
v -1.02267 -2.55763 -1.09533
vt -5.60867 7.76878
v -0.952428 -2.55771 -1.06178
vt -5.55708 7.61645
v -0.88701 -2.5578 -1.01958
vt -5.49218 7.4746
f 46/89/17 43/84/17 58/101/17 59/102/17 60/103/17 61/104/17 62/105/17 63/106/17 64/107/17 65/108/17 66/109/17 67/110/17 68/111/17 57/100/17 56/99/17 55/98/17 54/97/17 53/96/17 52/95/17 51/94/17 50/93/17 49/92/17 48/91/17 47/90/17 

usemtl M_640x480_eggshell_solid_color_background
v -0.831422 -2.55722 -1.28417
vt -5.89908 7.35406
vn -8.18049e-017 -0.999999 -0.00162847
f 69/112/18 57/100/18 68/111/18 67/110/18 66/109/18 65/108/18 64/107/18 63/106/18 62/105/18 61/104/18 60/103/18 59/102/18 58/101/18 43/84/18 45/88/18 

usemtl FrontColor
vt 59.1191 65.9117
vn 0.0652585 0.997868 -3.93856e-017
vt 19.7491 65.9117
v -0.82748 -2.55791 0.961087
vt 24.5895 65.8257
vt 39.4341 65.5621
vt 54.2786 65.8257
f 69/113/19 33/114/19 70/115/19 44/116/19 57/117/19 

usemtl M_640x480_flattery_solid_color_background1
vt 1.70655 -10.0787
vn -2.20717e-017 -1 3.54777e-017
vt -3.33285 3.27332
vt -3.33285 -10.0787
f 11/118/20 23/44/20 33/49/20 69/119/20 12/120/20 

v 2.56 -2.56 -0.00416662
vt -0.016404 10.0678
vn 1 3.44234e-013 1.62078e-015
f 71/121/21 11/19/21 23/29/21

vt -3.94341 6.82279
vn 1 3.44235e-013 1.06012e-015
f 71/122/22 12/12/22 11/11/22

vt -0.971436 7.10543e-016
vn 1.65259e-017 -0.552824 -0.833298
vt 2.96557 7.10543e-016
vt 2.96557 7.35406
vt 2.96557 9.78818
vt 2.96557 11.1024
vt -0.971436 11.1024
f 2/123/23 12/124/23 69/125/23 45/126/23 42/127/23 3/128/23 

usemtl M_640x480_eggshell_solid_color_background
vt -5.03396 7.69271
vn 1.29616e-017 -0.999999 0.00162847
v -1.67398 -2.55791 0.961087
vt -3.7948 6.59048
v -1.61445 -2.5578 1.01125
vt -3.99229 6.35611
v -1.54903 -2.55771 1.05345
vt -4.15842 6.09856
v -1.47879 -2.55763 1.087
vt -4.29051 5.822
v -1.40485 -2.55758 1.11136
vt -4.38642 5.53091
v -1.32842 -2.55755 1.12613
vt -4.44459 5.23
v -1.25073 -2.55754 1.13109
vt -4.46409 4.92414
v -1.17304 -2.55755 1.12613
vt -4.44459 4.61828
v -1.09661 -2.55758 1.11136
vt -4.38642 4.31736
v -1.02267 -2.55763 1.087
vt -4.29051 4.02627
v -0.952428 -2.55771 1.05345
vt -4.15842 3.74971
v -0.88701 -2.5578 1.01125
vt -3.99229 3.49217
vt -3.7948 3.2578
vt -5.03396 3.27332
f 32/129/24 72/130/24 73/131/24 74/132/24 75/133/24 76/134/24 77/135/24 78/136/24 79/137/24 80/138/24 81/139/24 82/140/24 83/141/24 70/142/24 33/143/24 

usemtl M_640x480_flattery_solid_color_background1
vt 0.0054206 3.2102
vn -1.07878e-016 -0.999999 0.00162847
vt -5.03396 10.0787
vt 0.0054206 10.0787
f 44/144/25 72/130/25 32/129/25 29/145/25 27/146/25 

usemtl M_640x480_eggshell_solid_color_background
vn -4.86221e-017 -0.999999 0.00162847
v -0.884431 -2.55803 0.905476
vt -3.57586 3.48201
v -0.948615 -2.55813 0.858397
vt -3.39051 3.7347
v -1.01876 -2.55821 0.820779
vt -3.2424 4.01088
v -1.09349 -2.55827 0.793366
vt -3.13448 4.30509
v -1.17133 -2.55831 0.776698
vt -3.06886 4.61153
v -1.25073 -2.55832 0.771106
vt -3.04684 4.92414
v -1.33013 -2.55831 0.776698
vt -3.06886 5.23675
v -1.40797 -2.55827 0.793366
vt -3.13448 5.54318
v -1.4827 -2.55821 0.820779
vt -3.2424 5.83739
v -1.55285 -2.55813 0.858397
vt -3.39051 6.11357
v -1.61703 -2.55803 0.905476
vt -3.57586 6.36626
f 72/130/26 44/144/26 70/142/26 84/147/26 85/148/26 86/149/26 87/150/26 88/151/26 89/152/26 90/153/26 91/154/26 92/155/26 93/156/26 94/157/26 

usemtl M_640x480_onyx_solid_color_background1
vt -2.55729 7.46901
vn -9.50269e-018 -0.999999 0.00162847
vt -2.47177 7.34551
vt -2.39462 7.4746
vt -2.32973 7.61645
vt -2.27813 7.76878
vt -2.24067 7.9291
vt -2.21794 8.09484
vt -2.21033 8.2633
vt -2.21794 8.43177
vt -2.24067 8.5975
vt -2.27813 8.75783
vt -2.32973 8.91015
vt -2.39462 9.05201
vt -2.47177 9.18109
vt -2.55729 9.0576
vt -2.62969 8.91842
vt -2.68755 8.76631
vt -2.7297 8.60426
vt -2.75534 8.43548
vt -2.76394 8.2633
vt -2.75534 8.09113
vt -2.7297 7.92235
vt -2.68755 7.7603
vt -2.62969 7.60819
f 84/158/27 70/159/27 83/160/27 82/161/27 81/162/27 80/163/27 79/164/27 78/165/27 77/166/27 76/167/27 75/168/27 74/169/27 73/170/27 72/171/27 94/172/27 93/173/27 92/174/27 91/175/27 90/176/27 89/177/27 88/178/27 87/179/27 86/180/27 85/181/27 

usemtl M_640x480_flattery_solid_color_background1
vt -3.80081 10.0787
vn -4.34449e-017 -0.00216893 0.999998
vt 5.938 10.0787
vn -1.65259e-017 0.552824 0.833298
vt 5.938 -10.0787
vt -3.80081 -10.0787
f 41/182/28 25/183/29 9/184/29 8/185/28 

vt -5.87448 10.0787
vn -5.16022e-017 -0.895106 0.445854
vt 3.85867 10.0787
vt 3.85867 -10.0787
vt -5.87448 -10.0787
f 39/186/30 41/187/28 8/188/28 7/189/30 

vt 0.0680851 10.0787
vn -3.62632e-017 -0.999999 -0.00162847
vt 4.2361 10.0787
vt 4.2361 -10.0787
vt 0.10878 -10.0787
vt 0.0680851 -10.0787
f 38/190/31 39/191/30 7/192/30 6/193/31 16/194/31 

vt -5.88702 10.0787
vn 5.57511e-017 0.552824 -0.833298
vt 3.85179 10.0787
vt 3.85179 -10.0787
vt -5.88702 -10.0787
f 28/195/32 30/196/11 19/197/11 18/198/32 

vt -0.00246891 10.0787
vn 4.51604e-017 0.999999 -0.00162847
vt 4.19326 10.0787
vt 4.19326 -10.0787
vt 0.000482731 -10.0787
vt -0.00246891 -10.0787
f 26/199/33 28/200/33 18/201/33 17/202/33 24/203/33 

g Mesh2 Group1 Model

usemtl FrontColor
v 0.575865 -2.59833 -0.77609
vt -51.3091 43.0246
vn -2.20825e-017 -1 4.61144e-005
v 1.55782 -2.59833 -0.77609
vt -51.3091 21.7315
v 1.55782 -2.59823 0.812753
vt -26.8744 21.7315
v 0.575865 -2.59823 0.812753
vt -26.8744 43.0246
f 95/204/34 96/205/34 97/206/34 98/207/34 

vt 68.7349 21.7315
vn 7.41236e-017 -8.18034e-005 -1
vt 68.7349 43.0246
v 0.575865 -2.41833 -0.776101
vt 66.3363 43.0246
v 1.55782 -2.41833 -0.776101
vt 66.3363 21.7315
f 96/208/35 95/209/35 99/210/35 100/211/35 

vt 51.3054 68.7386
vn -1 -5.84637e-017 1.47369e-016
vt 26.8707 68.7373
v 0.575865 -2.41823 0.812742
vt 26.8709 66.3386
vt 51.3056 66.3399
f 95/212/36 98/213/36 101/214/36 99/215/36 

vt -68.7354 43.0246
vn -7.41236e-017 8.18034e-005 1
vt -68.7354 21.7315
v 1.55782 -2.41823 0.812742
vt -66.3367 21.7315
vt -66.3367 43.0246
f 98/216/37 97/217/37 102/218/37 101/219/37 

vt -26.8707 68.7373
vn 1 5.84452e-017 -3.732e-016
vt -51.3054 68.7386
vt -51.3056 66.3399
vt -26.8709 66.3386
f 97/220/38 96/221/38 100/222/38 102/223/38 

vt 51.3091 21.7315
vn 2.20825e-017 1 -4.61144e-005
vt 51.3091 43.0246
vt 26.8744 43.0246
vt 26.8744 21.7315
f 100/224/39 99/225/39 101/226/39 102/227/39 

