# Alias OBJ Model File
# Exported from SketchUp, (c) 2000-2012 Trimble Navigation Limited
# File units = meters

mtllib Moving_Platform.mtl

g Mesh1 Group1 Model

usemtl M_640x480_cafe_noir_solid_color_background
v -2.56 2.56 2.56
vt -20.1575 20.1575
vn -1 0 0
v -2.56 2.56 -2.56
vt -20.1575 0
v -2.56 -2.56 -2.56
vt 0 0
v -2.56 -2.56 2.56
vt 0 20.1575
f 1/1/1 2/2/1 3/3/1 4/4/1 

vn 0 1 0
v 2.56 2.56 2.56
v 2.56 2.56 -2.56
f 1/4/2 5/1/2 6/2/2 2/3/2 

vt 20.1575 20.1575
vn 0 0 1
v 2.56 -2.56 2.56
vt 20.1575 0
f 5/5/3 1/4/3 4/3/3 7/6/3 

vn 0 -1 0
v 2.56 -2.56 -2.56
f 7/5/4 4/4/4 3/3/4 8/6/4 

vn 0 0 -1
f 2/4/5 6/1/5 8/2/5 3/3/5 

vn 1 0 0
f 6/6/6 5/5/6 7/4/6 8/3/6 

