# Alias OBJ Model File
# Exported from SketchUp, (c) 2000-2012 Trimble Navigation Limited
# File units = meters

mtllib Yelow_Switch.mtl

g Mesh1 Group1 Model

usemtl M_640x480_cyber_yellow_solid_color_background
v -2.0612 -1.5499 -2.56
vt -1.32525 -10.0787
vn -0.799255 -0.600992 0
v -1.58982 -2.03056 -2.56
vt 1.32525 -10.0787
vn -0.616473 -0.787376 0
v -1.58982 -2.03056 2.56
vt 1.32525 10.0787
v -2.0612 -1.5499 2.56
vt -1.32525 10.0787
f 1/1/1 2/2/2 3/3/2 4/4/1 

v 0.963609 -2.39211 -2.56
vt -3.79374 -9.41775
vn 0 0 -1
v 0.311652 -2.56 -2.56
vt -1.22697 -10.0787
v -0.361544 -2.55343 -2.56
vt 1.4234 -10.0529
v -1.0101 -2.37285 -2.56
vt 3.97678 -9.34193
vt 6.25914 -7.99435
vt 8.11496 -6.10196
v -2.39211 -0.963609 -2.56
vt 9.41775 -3.79374
v -2.56 -0.311652 -2.56
vt 10.0787 -1.22697
v -2.55343 0.361544 -2.56
vt 10.0529 1.4234
v -2.37285 1.0101 -2.56
vt 9.34193 3.97678
v -2.03056 1.58982 -2.56
vt 7.99435 6.25914
v -1.5499 2.0612 -2.56
vt 6.10196 8.11496
v -0.963609 2.39211 -2.56
vt 3.79374 9.41775
v -0.311652 2.56 -2.56
vt 1.22697 10.0787
v 0.361544 2.55343 -2.56
vt -1.4234 10.0529
v 1.0101 2.37285 -2.56
vt -3.97678 9.34193
v 1.58982 2.03056 -2.56
vt -6.25914 7.99435
v 2.0612 1.5499 -2.56
vt -8.11496 6.10196
v 2.39211 0.963609 -2.56
vt -9.41775 3.79374
v 2.56 0.311652 -2.56
vt -10.0787 1.22697
v 2.55343 -0.361544 -2.56
vt -10.0529 -1.4234
v 2.37285 -1.0101 -2.56
vt -9.34193 -3.97678
v 2.03056 -1.58982 -2.56
vt -7.99435 -6.25914
v 1.5499 -2.0612 -2.56
vt -6.10196 -8.11496
f 5/5/3 6/6/3 7/7/3 8/8/3 2/9/3 1/10/3 9/11/3 10/12/3 11/13/3 12/14/3 13/15/3 14/16/3 15/17/3 16/18/3 17/19/3 18/20/3 19/21/3 20/22/3 21/23/3 22/24/3 23/25/3 24/26/3 25/27/3 26/28/3 

vn 0.120847 -0.992671 0
vn 0.373651 -0.927569 0
v 0.963609 -2.39211 2.56
v 0.311652 -2.56 2.56
f 6/1/4 5/2/5 27/3/5 28/4/4 

vn 0.600992 -0.799255 0
v 1.5499 -2.0612 2.56
f 5/1/5 26/2/6 29/3/6 27/4/5 

vn 0.787376 -0.616473 0
v 2.03056 -1.58982 2.56
f 26/1/6 25/2/7 30/3/7 29/4/6 

vn 0.920102 -0.391679 0
v 2.37285 -1.0101 2.56
f 25/1/7 24/2/8 31/3/8 30/4/7 

vn 0.990124 -0.140193 0
v 2.55343 -0.361544 2.56
f 24/1/8 23/2/9 32/3/9 31/4/8 

vn 0.992671 0.120847 0
v 2.56 0.311652 2.56
f 23/1/9 22/2/10 33/3/10 32/4/9 

vn 0.927569 0.373651 0
v 2.39211 0.963609 2.56
f 22/1/10 21/2/11 34/3/11 33/4/10 

vn 0.799255 0.600992 0
v 2.0612 1.5499 2.56
f 21/1/11 20/2/12 35/3/12 34/4/11 

vn 0.616473 0.787376 0
v 1.58982 2.03056 2.56
f 20/1/12 19/2/13 36/3/13 35/4/12 

vn 0.391679 0.920102 0
v 1.0101 2.37285 2.56
f 19/1/13 18/2/14 37/3/14 36/4/13 

vn 0.140193 0.990124 0
v 0.361544 2.55343 2.56
f 18/1/14 17/2/15 38/3/15 37/4/14 

vn -0.120847 0.992671 0
v -0.311652 2.56 2.56
f 17/1/15 16/2/16 39/3/16 38/4/15 

vn -0.373651 0.927569 0
v -0.963609 2.39211 2.56
f 16/1/16 15/2/17 40/3/17 39/4/16 

vn -0.600992 0.799255 0
v -1.5499 2.0612 2.56
f 15/1/17 14/2/18 41/3/18 40/4/17 

vn -0.787376 0.616473 0
v -2.03056 1.58982 2.56
f 14/1/18 13/2/19 42/3/19 41/4/18 

vn -0.920102 0.391679 0
v -2.37285 1.0101 2.56
f 13/1/19 12/2/20 43/3/20 42/4/19 

vn -0.990124 0.140193 0
v -2.55343 0.361544 2.56
f 12/1/20 11/2/21 44/3/21 43/4/20 

vn -0.992671 -0.120847 0
v -2.56 -0.311652 2.56
f 11/1/21 10/2/22 45/3/22 44/4/21 

vn -0.927569 -0.373651 0
v -2.39211 -0.963609 2.56
f 10/1/22 9/2/23 46/3/23 45/4/22 

f 9/1/23 1/2/1 4/3/1 46/4/23 

vt 1.22697 -10.0787
vn 0 0 1
vt 3.79374 -9.41775
vt 6.10196 -8.11496
vt 7.99435 -6.25914
vt 9.34193 -3.97678
vt 10.0529 -1.4234
vt 10.0787 1.22697
vt 9.41775 3.79374
vt 8.11496 6.10196
vt 6.25914 7.99435
vt 3.97678 9.34193
vt 1.4234 10.0529
vt -1.22697 10.0787
vt -3.79374 9.41775
vt -6.10196 8.11496
vt -7.99435 6.25914
vt -9.34193 3.97678
vt -10.0529 1.4234
vt -10.0787 -1.22697
vt -9.41775 -3.79374
vt -8.11496 -6.10196
vt -6.25914 -7.99435
v -1.0101 -2.37285 2.56
vt -3.97678 -9.34193
v -0.361544 -2.55343 2.56
vt -1.4234 -10.0529
f 28/29/24 27/30/24 29/31/24 30/32/24 31/33/24 32/34/24 33/35/24 34/36/24 35/37/24 36/38/24 37/39/24 38/40/24 39/41/24 40/42/24 41/43/24 42/44/24 43/45/24 44/46/24 45/47/24 46/48/24 4/49/24 3/50/24 47/51/24 48/52/24 

vn -0.391679 -0.920102 0
f 2/1/2 8/2/25 47/3/25 3/4/2 

vn -0.140193 -0.990124 0
f 8/1/25 7/2/26 48/3/26 47/4/25 

f 7/1/26 6/2/4 28/3/4 48/4/26 

